<svg width="60" height="60" viewBox="0 0 60 60" fill="none" xmlns="http://www.w3.org/2000/svg">
<rect width="60" height="60" rx="12" fill="#E9E7FF"/>
<path d="M23.85 42.0001C26.7129 43.4687 30.0061 43.8664 33.1363 43.1217C36.2665 42.377 39.0278 40.5388 40.9226 37.9383C42.8174 35.3379 43.7211 32.1461 43.4709 28.9383C43.2206 25.7305 41.8329 22.7175 39.5577 20.4424C37.2825 18.1672 34.2696 16.7794 31.0618 16.5292C27.8539 16.2789 24.6622 17.1826 22.0617 19.0774C19.4613 20.9722 17.623 23.7335 16.8783 26.8637C16.1336 29.9939 16.5314 33.2872 18 36.1501L15 45.0001L23.85 42.0001Z" stroke="#3F3EED" stroke-width="2" stroke-linecap="round" stroke-linejoin="round"/>
<path d="M35.7 25.8005C34.999 25.1134 34.0565 24.7285 33.075 24.7285C32.0934 24.7285 31.1509 25.1134 30.45 25.8005L30 26.4005L29.475 25.9505C29.1311 25.5783 28.7131 25.2822 28.2479 25.0813C27.7827 24.8804 27.2805 24.7791 26.7738 24.784C26.2671 24.7889 25.767 24.8998 25.3058 25.1096C24.8445 25.3194 24.4323 25.6234 24.0956 26.0022C23.759 26.3809 23.5053 26.8259 23.351 27.3086C23.1968 27.7913 23.1453 28.3009 23.1998 28.8047C23.2544 29.3085 23.4138 29.7953 23.6679 30.2338C23.922 30.6722 24.265 31.0526 24.675 31.3505L30.075 36.6005L35.475 31.3505C37.275 29.5505 37.125 27.3005 35.775 25.8005" stroke="#3F3EED" stroke-width="2" stroke-linecap="round" stroke-linejoin="round"/>
</svg>
