<svg width="61" height="60" viewBox="0 0 61 60" fill="none" xmlns="http://www.w3.org/2000/svg">
<rect x="0.5" width="60" height="60" rx="12" fill="#E9E7FF"/>
<path d="M42.5 16.5H35C34.1716 16.5 33.5 17.1716 33.5 18V25.5C33.5 26.3284 34.1716 27 35 27H42.5C43.3284 27 44 26.3284 44 25.5V18C44 17.1716 43.3284 16.5 42.5 16.5Z" stroke="#3F3EED" stroke-width="2" stroke-linecap="round" stroke-linejoin="round"/>
<path d="M27.5 43.5V24C27.5 23.6022 27.342 23.2206 27.0607 22.9393C26.7794 22.658 26.3978 22.5 26 22.5H18.5C18.1022 22.5 17.7206 22.658 17.4393 22.9393C17.158 23.2206 17 23.6022 17 24V42C17 42.3978 17.158 42.7794 17.4393 43.0607C17.7206 43.342 18.1022 43.5 18.5 43.5H36.5C36.8978 43.5 37.2794 43.342 37.5607 43.0607C37.842 42.7794 38 42.3978 38 42V34.5C38 34.1022 37.842 33.7206 37.5607 33.4393C37.2794 33.158 36.8978 33 36.5 33H17" stroke="#3F3EED" stroke-width="2" stroke-linecap="round" stroke-linejoin="round"/>
</svg>
