<svg width="61" height="60" viewBox="0 0 61 60" fill="none" xmlns="http://www.w3.org/2000/svg">
<rect x="0.5" width="60" height="60" rx="12" fill="#E9E7FF"/>
<path d="M39.5 15H21.5C20.7044 15 19.9413 15.3161 19.3787 15.8787C18.8161 16.4413 18.5 17.2044 18.5 18V42C18.5 42.7956 18.8161 43.5587 19.3787 44.1213C19.9413 44.6839 20.7044 45 21.5 45H39.5C40.2956 45 41.0587 44.6839 41.6213 44.1213C42.1839 43.5587 42.5 42.7956 42.5 42V18C42.5 17.2044 42.1839 16.4413 41.6213 15.8787C41.0587 15.3161 40.2956 15 39.5 15Z" stroke="#3F3EED" stroke-width="2" stroke-linecap="round" stroke-linejoin="round"/>
<path d="M26 35.9996L26.522 35.6396C28.7195 34.1201 32.282 34.1201 34.478 35.6396L35 35.9996" stroke="#3F3EED" stroke-width="2" stroke-linecap="round" stroke-linejoin="round"/>
<path d="M24.5 22.5H24.515" stroke="#3F3EED" stroke-width="2" stroke-linecap="round" stroke-linejoin="round"/>
<path d="M36.5 22.5H36.515" stroke="#3F3EED" stroke-width="2" stroke-linecap="round" stroke-linejoin="round"/>
<path d="M30.5 22.5H30.515" stroke="#3F3EED" stroke-width="2" stroke-linecap="round" stroke-linejoin="round"/>
<path d="M30.5 28.5H30.515" stroke="#3F3EED" stroke-width="2" stroke-linecap="round" stroke-linejoin="round"/>
<path d="M36.5 28.5H36.515" stroke="#3F3EED" stroke-width="2" stroke-linecap="round" stroke-linejoin="round"/>
<path d="M24.5 28.5H24.515" stroke="#3F3EED" stroke-width="2" stroke-linecap="round" stroke-linejoin="round"/>
<path d="M27.5 45V35.25M33.5 35.25V45" stroke="#3F3EED" stroke-width="2" stroke-linecap="round" stroke-linejoin="round"/>
</svg>
