<svg width="61" height="60" viewBox="0 0 61 60" fill="none" xmlns="http://www.w3.org/2000/svg">
<rect x="0.5" width="60" height="60" rx="12" fill="#E9E7FF"/>
<path d="M38 15H23C18.8579 15 15.5 18.3579 15.5 22.5V37.5C15.5 41.6421 18.8579 45 23 45H38C42.1421 45 45.5 41.6421 45.5 37.5V22.5C45.5 18.3579 42.1421 15 38 15Z" stroke="#3F3EED" stroke-width="2" stroke-linecap="round" stroke-linejoin="round"/>
<path d="M36.4996 29.0555C36.6847 30.3038 36.4714 31.5788 35.8902 32.699C35.3089 33.8192 34.3893 34.7276 33.262 35.295C32.1347 35.8624 30.8572 36.0598 29.6112 35.8594C28.3652 35.6589 27.2142 35.0706 26.3218 34.1782C25.4294 33.2858 24.8412 32.1348 24.6407 30.8888C24.4402 29.6428 24.6377 28.3653 25.2051 27.238C25.7724 26.1107 26.6808 25.1911 27.801 24.6098C28.9212 24.0286 30.1962 23.8153 31.4446 24.0005C32.7179 24.1893 33.8968 24.7826 34.8071 25.6929C35.7174 26.6032 36.3107 27.7821 36.4996 29.0555Z" stroke="#3F3EED" stroke-width="2" stroke-linecap="round" stroke-linejoin="round"/>
<path d="M38.75 21.75H38.765" stroke="#3F3EED" stroke-width="2" stroke-linecap="round" stroke-linejoin="round"/>
</svg>
