<?xml version="1.0" standalone="no"?>
<!DOCTYPE svg PUBLIC "-//W3C//DTD SVG 20010904//EN"
 "http://www.w3.org/TR/2001/REC-SVG-20010904/DTD/svg10.dtd">
<svg version="1.0" xmlns="http://www.w3.org/2000/svg"
 width="1226.000000pt" height="723.000000pt" viewBox="0 0 1226.000000 723.000000"
 preserveAspectRatio="xMidYMid meet">

<g transform="translate(0.000000,723.000000) scale(0.100000,-0.100000)"
fill="#000000" stroke="none">
<path d="M5090 5510 l0 -860 -1590 0 c-1706 0 -1642 2 -1669 -48 -8 -14 -11
-251 -11 -766 l0 -744 26 -31 26 -31 3553 0 3554 0 28 24 28 24 0 756 0 756
-28 27 -27 28 -1890 3 -1890 2 0 805 0 805 2765 0 2765 0 0 -2765 0 -2765
-2765 0 -2765 0 0 805 0 805 -55 0 -55 0 0 -860 0 -860 2875 0 2875 0 0 2875
0 2875 -2875 0 -2875 0 0 -860z m3884 -926 c14 -14 16 -95 16 -748 0 -605 -2
-736 -14 -745 -10 -8 -945 -10 -3557 -9 l-3544 3 -3 745 c-2 692 -1 746 15
758 13 9 738 12 3544 12 3194 0 3529 -1 3543 -16z"/>
<path d="M2110 4473 c0 -5 -27 -266 -60 -581 -33 -314 -60 -585 -60 -602 l0
-30 60 0 c33 0 60 2 60 5 0 29 47 516 68 712 25 226 34 276 46 262 2 -2 75
-191 162 -419 l159 -415 63 0 64 0 167 413 c91 228 171 414 176 413 11 0 55
-382 80 -686 8 -110 18 -219 21 -242 l5 -43 65 0 c35 0 64 3 64 8 0 17 -111
1150 -116 1180 l-5 32 -82 0 -83 0 -22 -62 c-69 -195 -319 -817 -327 -815 -10
4 -194 477 -280 722 l-53 150 -86 3 c-47 1 -86 -1 -86 -5z"/>
<path d="M4453 3872 l2 -609 120 -6 c130 -6 307 5 376 23 105 29 194 93 233
169 22 43 35 139 26 202 -17 120 -87 196 -213 233 l-40 11 52 32 c122 76 165
250 98 397 -28 60 -70 97 -149 129 -48 19 -76 22 -280 25 l-227 4 2 -610z
m397 477 c97 -21 149 -103 135 -214 -8 -66 -41 -122 -93 -159 -37 -27 -52 -30
-132 -34 -49 -2 -105 -1 -125 2 l-35 7 0 204 0 205 100 0 c54 0 122 -5 150
-11z m66 -544 c55 -16 103 -56 129 -105 13 -25 16 -51 13 -105 -3 -60 -8 -78
-31 -108 -58 -76 -152 -107 -327 -107 l-97 0 -6 83 c-4 45 -7 144 -7 220 l0
137 138 0 c93 0 155 -5 188 -15z"/>
<path d="M7855 4468 c-2 -7 -103 -282 -223 -611 l-219 -598 75 3 75 3 17 70
c10 39 32 111 51 162 30 82 36 92 62 97 41 8 446 6 477 -3 21 -6 29 -23 62
-126 21 -66 42 -139 48 -162 l11 -43 75 0 c57 0 75 3 72 13 -3 6 -95 281 -204
610 l-199 597 -88 0 c-61 0 -89 -4 -92 -12z m192 -434 c51 -153 96 -287 99
-296 5 -17 -9 -18 -210 -18 -119 0 -216 3 -216 8 0 23 216 592 224 589 5 -2
52 -129 103 -283z"/>
<path d="M8665 3870 l0 -610 73 0 72 0 0 610 0 610 -72 0 -73 0 0 -610z"/>
<path d="M5730 4209 c-30 -5 -89 -26 -130 -46 -135 -68 -206 -196 -217 -393
-18 -309 124 -500 384 -517 254 -16 424 101 478 328 19 83 19 258 0 332 -60
231 -247 338 -515 296z m214 -130 c68 -25 123 -83 151 -160 16 -44 20 -78 20
-189 -1 -117 -4 -143 -24 -192 -45 -114 -132 -168 -271 -168 -180 0 -269 88
-289 287 -17 166 14 305 84 373 70 68 220 90 329 49z"/>
<path d="M3441 4168 c12 -24 84 -163 160 -309 l139 -265 0 -167 0 -167 65 0
65 0 0 167 0 166 173 300 c94 165 174 304 175 309 2 4 -30 8 -72 8 -70 0 -76
-2 -81 -23 -10 -37 -242 -432 -255 -432 -11 0 -200 349 -224 415 l-13 35 -77
3 -77 3 22 -43z"/>
<path d="M6346 4173 c-3 -21 -6 -50 -6 -65 l0 -27 146 6 146 6 -4 -416 -3
-417 68 0 67 0 0 417 0 416 140 -6 140 -6 0 65 0 64 -344 0 -343 0 -7 -37z"/>
<path d="M7140 3421 c-13 -4 -33 -22 -44 -40 -16 -28 -17 -38 -7 -71 14 -48
54 -68 102 -51 42 14 58 38 59 84 0 35 -26 77 -49 77 -5 0 -15 2 -23 4 -7 2
-24 1 -38 -3z"/>
<path d="M2080 2928 c-66 -34 -90 -76 -90 -158 0 -82 24 -124 90 -158 51 -27
125 -26 179 2 30 16 31 19 31 81 l0 65 -55 0 c-42 0 -55 -3 -55 -15 0 -10 11
-15 35 -15 34 0 35 -1 35 -40 0 -34 -4 -42 -26 -50 -35 -14 -94 -12 -124 3
-67 34 -92 141 -47 208 28 42 60 59 112 59 63 0 84 -9 87 -38 6 -47 28 -38 28
11 0 50 -2 51 -100 62 -46 5 -63 2 -100 -17z"/>
<path d="M8020 2940 c0 -6 7 -13 15 -16 11 -4 15 -21 15 -56 0 -43 -2 -49 -15
-38 -18 15 -76 16 -104 1 -47 -26 -68 -130 -36 -190 26 -51 93 -63 137 -23 16
13 18 13 24 -2 4 -10 18 -16 40 -16 37 0 46 15 14 25 -19 6 -20 15 -20 166 l0
159 -35 0 c-19 0 -35 -5 -35 -10z m18 -142 c7 -7 12 -39 12 -72 0 -71 -17 -96
-66 -96 -43 0 -64 30 -64 90 0 62 21 90 69 90 20 0 42 -5 49 -12z"/>
<path d="M2636 2904 c-3 -9 -6 -27 -6 -41 0 -16 -7 -27 -20 -30 -11 -3 -20 -9
-20 -13 0 -4 9 -10 20 -13 18 -5 20 -14 20 -96 0 -85 1 -91 25 -107 18 -12 31
-14 52 -7 41 14 41 33 -1 33 l-36 0 0 90 0 90 36 0 c45 0 42 24 -4 28 -30 3
-32 6 -32 43 0 40 -22 55 -34 23z"/>
<path d="M8446 2879 c-5 -29 -12 -43 -26 -46 -26 -7 -26 -23 0 -23 19 0 20 -7
20 -90 0 -77 3 -93 20 -110 21 -21 32 -23 68 -14 33 9 27 32 -10 36 l-33 3 -3
88 -3 87 36 0 c24 0 35 4 35 15 0 10 -11 15 -35 15 -34 0 -35 1 -35 40 0 55
-25 54 -34 -1z"/>
<path d="M2421 2837 c-48 -17 -73 -54 -73 -110 0 -62 20 -98 64 -120 39 -19
92 -16 124 7 31 23 8 35 -37 20 -53 -19 -89 -3 -105 46 l-12 35 89 3 c80 2 89
5 89 22 0 73 -69 121 -139 97z m62 -28 c27 -14 37 -28 37 -51 0 -15 -10 -18
-65 -18 -57 0 -65 2 -65 18 0 24 31 52 68 61 2 1 13 -4 25 -10z"/>
<path d="M2965 2835 c-22 -8 -41 -15 -42 -15 -2 0 -3 -7 -3 -16 0 -12 6 -15
23 -9 76 24 107 14 107 -35 0 -25 -4 -28 -51 -34 -53 -7 -99 -40 -99 -71 0
-24 46 -65 72 -65 13 0 38 9 56 20 26 16 32 17 32 5 0 -10 11 -15 35 -15 38 0
47 15 15 25 -18 6 -20 15 -20 91 0 71 -3 87 -20 104 -11 11 -24 20 -29 20 -5
0 -15 2 -23 5 -7 2 -31 -2 -53 -10z m85 -155 c0 -52 -77 -81 -104 -38 -8 13
-6 22 8 37 16 17 33 23 84 30 7 0 12 -11 12 -29z"/>
<path d="M3265 2830 c-47 -24 -45 -24 -45 -5 0 10 -11 15 -35 15 -38 0 -48
-19 -15 -27 18 -5 20 -14 20 -93 0 -80 -2 -89 -20 -95 -38 -12 -20 -25 35 -25
52 0 73 14 40 26 -11 5 -15 23 -15 79 0 82 15 105 68 105 43 0 52 -22 52 -124
l0 -86 40 0 c42 0 54 14 20 25 -18 6 -20 15 -20 85 0 68 -3 82 -22 104 -33 35
-58 39 -103 16z"/>
<path d="M3517 2839 c-43 -12 -57 -28 -57 -65 0 -37 18 -53 82 -73 43 -14 52
-31 32 -60 -24 -33 -94 -26 -94 10 0 10 -4 19 -10 19 -5 0 -10 -15 -10 -34 0
-32 2 -34 44 -40 75 -12 126 29 114 91 -2 10 -27 29 -60 46 -65 31 -77 60 -32
77 29 12 64 -2 64 -25 0 -8 5 -15 10 -15 6 0 10 14 10 30 0 17 -1 30 -3 30 -1
0 -16 4 -32 8 -17 5 -43 5 -58 1z"/>
<path d="M4174 2838 c-16 -4 -41 -19 -55 -34 -20 -21 -24 -36 -24 -84 0 -51 4
-63 29 -89 16 -16 41 -33 57 -36 30 -7 105 10 114 25 14 22 -7 28 -46 15 -26
-10 -47 -11 -63 -5 -28 10 -56 47 -56 72 0 16 10 18 85 18 l85 0 0 34 c0 22
-8 42 -25 59 -30 29 -58 36 -101 25z m79 -50 c33 -39 23 -48 -53 -48 -38 0
-70 2 -70 5 0 2 5 15 11 29 22 47 77 54 112 14z"/>
<path d="M4470 2842 c-8 -2 -25 -14 -37 -25 l-23 -20 0 21 c0 18 -6 22 -35 22
-24 0 -35 -5 -35 -15 0 -8 7 -15 15 -15 12 0 15 -17 15 -89 0 -70 -3 -90 -15
-95 -33 -12 -12 -26 40 -26 55 0 73 13 35 25 -17 5 -20 15 -20 65 0 49 4 64
26 90 22 26 31 30 55 25 24 -6 29 -3 29 13 0 20 -24 32 -50 24z"/>
<path d="M4613 2842 c-26 -4 -63 -47 -63 -72 0 -22 28 -47 71 -61 45 -16 59
-27 59 -50 0 -43 -92 -50 -103 -9 -8 30 -27 24 -27 -9 0 -36 5 -39 64 -47 41
-6 48 -4 75 24 52 52 36 90 -51 122 -54 19 -65 54 -22 70 34 13 64 4 64 -21 0
-10 7 -19 15 -19 10 0 15 10 15 30 0 30 0 30 -65 44 -5 1 -20 0 -32 -2z"/>
<path d="M4970 2839 c-59 -13 -96 -83 -80 -154 10 -46 33 -71 76 -85 95 -32
182 74 141 171 -24 58 -72 82 -137 68z m85 -53 c19 -29 22 -94 6 -125 -25 -45
-96 -47 -120 -2 -19 34 -13 109 9 131 29 29 85 27 105 -4z"/>
<path d="M5262 2829 c-44 -23 -42 -23 -42 -4 0 10 -11 15 -35 15 -24 0 -35 -5
-35 -15 0 -8 9 -15 20 -15 19 0 20 -7 20 -89 0 -81 -2 -90 -20 -96 -38 -12
-20 -25 35 -25 52 0 73 14 40 26 -12 5 -15 24 -15 85 0 85 9 99 64 99 45 0 56
-23 56 -121 l0 -89 35 0 c35 0 47 16 20 26 -12 5 -15 24 -15 84 0 62 -4 82
-20 102 -26 34 -63 40 -108 17z"/>
<path d="M5950 2839 c-59 -13 -96 -83 -80 -154 10 -46 33 -71 76 -85 95 -32
182 74 141 171 -24 58 -72 82 -137 68z m85 -53 c19 -29 22 -94 6 -125 -25 -45
-96 -47 -120 -2 -19 34 -13 109 9 131 29 29 85 27 105 -4z"/>
<path d="M6550 2842 c-8 -2 -25 -14 -37 -25 l-23 -20 0 21 c0 18 -6 22 -35 22
-24 0 -35 -5 -35 -15 0 -8 7 -15 15 -15 12 0 15 -17 15 -89 0 -70 -3 -90 -15
-95 -33 -12 -12 -26 40 -26 55 0 73 13 35 25 -17 5 -20 15 -20 70 0 78 21 110
71 110 23 0 35 5 37 16 3 17 -23 29 -48 21z"/>
<path d="M6840 2839 c-40 -8 -79 -52 -81 -89 -6 -83 14 -124 68 -146 93 -40
182 49 153 154 -17 65 -71 96 -140 81z m85 -53 c19 -29 22 -94 6 -125 -25 -45
-96 -47 -120 -2 -19 34 -13 109 9 131 29 29 85 27 105 -4z"/>
<path d="M7585 2842 c-10 -2 -29 -11 -42 -19 -21 -14 -23 -14 -23 1 0 12 -9
16 -35 16 -24 0 -35 -5 -35 -15 0 -8 7 -15 15 -15 12 0 15 -17 15 -89 0 -70
-3 -90 -15 -95 -33 -12 -12 -26 40 -26 55 0 73 13 35 25 -18 6 -20 15 -20 80
0 65 3 76 22 89 33 23 74 20 92 -6 11 -16 16 -46 16 -105 l0 -83 35 0 c36 0
46 13 21 27 -9 6 -15 33 -17 89 -5 105 -34 140 -104 126z"/>
<path d="M8231 2839 c-18 -4 -40 -14 -49 -23 -14 -14 -14 -16 0 -21 9 -4 25
-2 37 4 49 27 91 4 91 -48 0 -17 -6 -21 -30 -21 -35 0 -101 -25 -112 -43 -15
-24 -8 -66 14 -81 29 -20 51 -20 96 1 26 12 37 14 40 5 4 -14 62 -16 62 -2 0
5 -6 13 -14 17 -9 6 -15 33 -17 89 -5 112 -33 141 -118 123z m79 -159 c0 -36
-36 -63 -77 -58 -24 3 -28 8 -28 33 0 25 5 32 35 42 58 20 70 17 70 -17z"/>
<path d="M8661 2839 c-18 -4 -40 -14 -49 -23 -14 -14 -14 -16 0 -21 9 -4 25
-2 37 4 48 26 91 7 91 -40 0 -24 -4 -27 -49 -33 -55 -7 -101 -38 -101 -67 0
-58 54 -82 116 -53 28 13 39 15 42 6 5 -15 62 -16 62 -2 0 6 -7 13 -15 16 -12
5 -15 24 -15 84 0 112 -32 147 -119 129z m77 -161 c-4 -40 -41 -64 -81 -54
-20 5 -27 13 -27 31 0 27 10 35 54 46 54 13 57 11 54 -23z"/>
<path d="M3650 2829 c0 -6 8 -13 18 -16 13 -3 28 -34 52 -109 30 -91 37 -104
55 -102 16 2 26 23 51 98 l30 95 33 -98 c29 -86 36 -98 54 -95 17 2 27 21 52
103 22 71 36 101 48 103 9 2 17 10 17 18 0 10 -14 14 -55 14 -55 0 -76 -16
-34 -27 12 -4 18 -11 15 -20 -3 -7 -13 -39 -22 -71 -9 -31 -19 -60 -23 -64 -3
-4 -19 36 -35 88 -40 127 -53 127 -97 -3 l-33 -98 -23 75 c-27 89 -27 90 -8
90 8 0 15 7 15 15 0 12 -13 15 -55 15 -33 0 -55 -4 -55 -11z"/>
<path d="M5570 2826 c0 -8 7 -16 16 -18 10 -2 34 -43 60 -101 l43 -98 -21 -44
c-12 -25 -19 -47 -15 -51 17 -18 39 16 97 150 37 87 68 146 76 146 8 0 14 7
14 15 0 12 -13 15 -55 15 -55 0 -76 -16 -35 -27 24 -6 24 -1 -1 -60 -11 -26
-25 -59 -31 -73 -9 -23 -11 -20 -40 49 -28 66 -29 74 -14 83 31 17 16 28 -39
28 -41 0 -55 -4 -55 -14z"/>
<path d="M6120 2825 c0 -8 9 -15 20 -15 18 0 20 -7 20 -85 0 -78 2 -88 25
-110 29 -30 49 -31 98 -6 29 15 37 16 37 5 0 -9 12 -14 35 -14 35 0 47 16 20
26 -12 5 -15 27 -15 110 l0 104 -40 0 c-42 0 -55 -18 -20 -27 18 -5 20 -14 20
-78 0 -78 -11 -97 -61 -110 -47 -12 -59 14 -59 121 l0 94 -40 0 c-29 0 -40 -4
-40 -15z"/>
<path d="M7020 2825 c0 -8 7 -15 15 -15 10 0 25 -34 46 -105 28 -91 35 -105
54 -105 18 0 26 14 50 90 16 50 32 90 35 90 4 0 19 -41 34 -91 24 -79 30 -90
48 -87 17 2 28 22 56 106 21 65 39 102 48 102 8 0 14 7 14 15 0 11 -12 15 -50
15 -38 0 -50 -4 -50 -15 0 -8 7 -15 15 -15 19 0 19 -1 -9 -90 -14 -41 -27 -68
-29 -60 -3 8 -17 52 -32 98 -21 63 -31 82 -45 82 -14 0 -24 -19 -45 -82 -15
-46 -29 -90 -32 -98 -3 -8 -13 10 -23 42 -31 99 -32 108 -15 108 8 0 15 7 15
15 0 11 -12 15 -50 15 -38 0 -50 -4 -50 -15z"/>
</g>
</svg>
