<svg width="131" height="25" viewBox="0 0 131 25" fill="none" xmlns="http://www.w3.org/2000/svg">
<g id="Main Logotype 2" clip-path="url(#clip0_76_7375)">
<path id="Vector" fill-rule="evenodd" clip-rule="evenodd" d="M19.8288 14.4625C19.8771 17.8353 17.1779 20.5951 13.8526 20.5951L10.1665 20.5907C8.9788 20.5899 8.01683 19.6154 8.01683 18.4145C8.01683 17.2127 8.98057 16.2382 10.1691 16.2382H13.8113C14.7147 16.2382 15.4821 15.5764 15.5183 14.6175C15.5544 13.6587 14.7931 12.8671 13.8526 12.8671H6.56731C3.2877 12.8671 0.550658 10.2336 0.500705 6.91742C0.449892 3.54201 3.15076 0.779663 6.47688 0.779663H16.6009C17.7911 0.779663 18.7557 1.75502 18.7557 2.95854C18.7557 4.16206 17.7911 5.13742 16.6009 5.13742H6.51739C5.61393 5.13742 4.84656 5.79927 4.81039 6.75809C4.77422 7.71689 5.53556 8.5085 6.47605 8.5085H13.757C17.0392 8.5085 19.7814 11.1437 19.8288 14.4625ZM5.86886 18.4232C5.86886 19.6227 4.90719 20.5951 3.72091 20.5951C2.53463 20.5951 1.57296 19.6227 1.57296 18.4232C1.57296 17.2237 2.53463 16.2513 3.72091 16.2513C4.90719 16.2513 5.86886 17.2237 5.86886 18.4232Z" fill="#DDD6FE"/>
<path id="Vector_2" d="M71.956 7.50268V9.95499C71.956 10.07 71.8636 10.1631 71.7502 10.1631H69.169V19.1321C69.169 19.2471 69.0767 19.3402 68.9632 19.3402H66.1433C66.0298 19.3402 65.9375 19.2471 65.9375 19.1321V2.49005C65.9375 2.3751 66.0298 2.28192 66.1433 2.28192H68.9632C69.0767 2.28192 69.169 2.3751 69.169 2.49005V7.29454H71.7502C71.8636 7.29454 71.956 7.38776 71.956 7.50268Z" fill="#DDD6FE"/>
<path id="Vector_3" d="M37.0495 10.6237C36.5646 10.2667 36.0263 9.9793 35.4338 9.7633C34.8413 9.54731 34.2298 9.37668 33.5968 9.25213C32.9638 9.12758 32.3514 9.00308 31.7597 8.87764C31.168 8.75314 30.6332 8.60332 30.1569 8.42918C29.6798 8.25499 29.2983 8.01379 29.0097 7.70636C28.7221 7.39893 28.5783 6.98704 28.5783 6.47235C28.5783 5.89062 28.8168 5.42123 29.2931 5.06331C29.7702 4.70626 30.4274 4.52687 31.2662 4.52687C32.1705 4.52687 32.906 4.74719 33.4736 5.18784C33.9662 5.57102 34.3202 6.15101 34.5329 6.92865C34.5622 7.03496 34.6656 7.10285 34.7732 7.0802L37.7944 6.45494C37.9142 6.43055 37.9874 6.30515 37.9495 6.18759C37.6653 5.31063 37.3475 4.69406 36.9272 4.17765C36.2778 3.37995 35.4726 2.78951 34.5105 2.40721C33.5485 2.0249 32.5004 1.83331 31.3661 1.83331C30.051 1.83331 28.9331 2.05799 28.0124 2.50648C27.0918 2.95497 26.3933 3.55412 25.9162 4.30218C25.439 5.05025 25.2004 5.8732 25.2004 6.77104C25.2004 7.61926 25.34 8.32116 25.6199 8.87853C25.8998 9.4359 26.2779 9.88869 26.7541 10.2379C27.2313 10.5871 27.7696 10.8658 28.3698 11.0731C28.9701 11.2812 29.5868 11.4554 30.2198 11.5965C30.8528 11.7376 31.4651 11.8751 32.0569 12.0075C32.6485 12.1408 33.1834 12.3027 33.6596 12.4934C34.1368 12.6851 34.5148 12.9463 34.7939 13.2789C35.0729 13.6116 35.2133 14.0523 35.2133 14.6009C35.2133 15.2828 34.9506 15.8271 34.4244 16.2346C33.8982 16.6422 33.117 16.846 32.0818 16.846C31.0466 16.846 30.2612 16.6047 29.6281 16.1232C29.0881 15.7121 28.7006 15.1487 28.4654 14.4337C28.431 14.3274 28.3233 14.2656 28.2165 14.2944L25.3537 15.0782C25.2392 15.1095 25.172 15.234 25.2125 15.3472C25.4485 16.0195 25.7697 16.6108 26.1762 17.1212C26.8256 17.9354 27.6481 18.5424 28.6429 18.9413C29.6376 19.3401 30.7762 19.5396 32.0586 19.5396C33.3409 19.5396 34.4511 19.3314 35.4372 18.916C36.4234 18.5006 37.2002 17.8893 37.7678 17.0828C38.3353 16.2764 38.6187 15.3081 38.6187 14.1777C38.6187 13.3129 38.4791 12.5944 38.1993 12.0206C37.9193 11.4467 37.5378 10.9816 37.0521 10.6237H37.0495Z" fill="#DDD6FE"/>
<path id="Vector_4" d="M61.3566 7.53139C60.6733 7.09162 59.889 6.87039 59.0009 6.87039C58.113 6.87039 57.2871 7.06986 56.5713 7.46867C56.1838 7.68466 55.8436 7.94768 55.5482 8.25422V7.32675C55.5482 7.21177 55.456 7.11861 55.3423 7.11861H52.5226C52.4089 7.11861 52.3168 7.21177 52.3168 7.32675V18.9561C52.3168 19.0711 52.4089 19.1643 52.5226 19.1643H55.3423C55.456 19.1643 55.5482 19.0711 55.5482 18.9561V12.2557C55.5482 11.7908 55.6507 11.3701 55.8565 10.9965C56.0615 10.6229 56.3457 10.3355 56.7074 10.1361C57.0692 9.93667 57.48 9.83655 57.9407 9.83655C58.6314 9.83655 59.1981 10.0612 59.6426 10.5097C60.086 10.9582 60.3082 11.5408 60.3082 12.2557V18.9561C60.3082 19.0711 60.4005 19.1643 60.514 19.1643H63.3586C63.4727 19.1643 63.5644 19.0711 63.5644 18.9561V11.5077C63.5644 10.71 63.3674 9.9576 62.9729 9.25047C62.5784 8.54417 62.0392 7.97033 61.3583 7.52966L61.3566 7.53139Z" fill="#DDD6FE"/>
<path id="Vector_5" d="M82.5699 7.45662C81.8791 7.06643 81.0818 6.87054 80.1775 6.87054C79.2732 6.87054 78.4671 7.06994 77.7603 7.46881C77.3876 7.67868 77.0595 7.93296 76.7743 8.22903V2.5145C76.7743 2.39955 76.6826 2.30637 76.5685 2.30637H73.7492C73.6352 2.30637 73.5428 2.39955 73.5428 2.5145V18.9571C73.5428 19.072 73.6352 19.1653 73.7492 19.1653H76.5685C76.6826 19.1653 76.7743 19.072 76.7743 18.9571V12.2567C76.7743 11.7917 76.8772 11.3711 77.083 10.9975C77.2876 10.6239 77.5722 10.3365 77.9338 10.1371C78.2954 9.93765 78.7064 9.83753 79.1668 9.83753C79.8576 9.83753 80.4244 10.0622 80.8689 10.5107C81.3123 10.9592 81.5345 11.5418 81.5345 12.2567V18.9571C81.5345 19.072 81.6268 19.1653 81.7403 19.1653H84.5849C84.699 19.1653 84.7907 19.072 84.7907 18.9571V11.5087C84.7907 10.5943 84.5937 9.78789 84.1992 9.08944C83.8047 8.39104 83.262 7.84675 82.5717 7.45662H82.5699Z" fill="#DDD6FE"/>
<path id="Vector_6" d="M90.9496 5.64867C91.2677 5.28988 91.7093 5.09219 92.2731 5.05561C92.3813 5.04865 92.4666 4.96331 92.4666 4.85445V2.2445C92.4666 2.1278 92.3708 2.03201 92.2555 2.03549C91.2736 2.0651 90.4069 2.3011 89.6555 2.74262C88.8494 3.21637 88.2326 3.84426 87.8052 4.62541C87.386 5.39263 87.1731 6.2243 87.1655 7.11952H87.1637V18.9562C87.1637 19.0711 87.256 19.1643 87.3695 19.1643H90.2141C90.3281 19.1643 90.4199 19.0711 90.4199 18.9562V10.1614H93.0022C93.1157 10.1614 93.208 10.0683 93.208 9.95328V7.50097C93.208 7.38605 93.1157 7.29283 93.0022 7.29283H90.4199C90.4199 6.71108 90.5969 6.04578 90.9508 5.64693L90.9496 5.64867Z" fill="#DDD6FE"/>
<path id="Vector_7" d="M98.1058 2.28192H95.2871C95.173 2.28192 95.0813 2.3751 95.0813 2.49005V18.9562C95.0813 19.0711 95.173 19.1643 95.2871 19.1643H98.1058C98.2193 19.1643 98.3116 19.0711 98.3116 18.9562V2.49005C98.3116 2.3751 98.2193 2.28192 98.1058 2.28192Z" fill="#DDD6FE"/>
<path id="Vector_8" d="M109.604 7.66898C108.642 7.12035 107.552 6.84604 106.336 6.84604C105.12 6.84604 104.054 7.12469 103.092 7.68117C102.13 8.23848 101.37 8.98658 100.811 9.92534C100.252 10.865 99.972 11.9249 99.972 13.1048C99.972 14.2848 100.251 15.3787 100.811 16.334C101.37 17.2902 102.13 18.047 103.092 18.6034C104.054 19.1607 105.136 19.4386 106.336 19.4386C107.536 19.4386 108.646 19.1607 109.616 18.6034C110.586 18.047 111.351 17.2858 111.91 16.3218C112.469 15.3577 112.748 14.2857 112.748 13.1048C112.748 11.924 112.465 10.8607 111.897 9.91315C111.329 8.96565 110.565 8.21762 109.604 7.66898ZM109.036 14.8012C108.781 15.2837 108.419 15.666 107.951 15.9482C107.482 16.2312 106.943 16.3723 106.336 16.3723C105.729 16.3723 105.218 16.2312 104.757 15.9482C104.297 15.666 103.939 15.2837 103.684 14.8012C103.429 14.3197 103.302 13.7624 103.302 13.1301C103.302 12.4979 103.429 11.9414 103.684 11.4589C103.939 10.9774 104.297 10.5985 104.757 10.3242C105.217 10.0499 105.744 9.91315 106.336 9.91315C106.928 9.91315 107.475 10.0508 107.927 10.3242C108.379 10.5985 108.74 10.9765 109.012 11.4589C109.283 11.9414 109.419 12.4979 109.419 13.1301C109.419 13.7624 109.292 14.3188 109.037 14.8012H109.036Z" fill="#DDD6FE"/>
<path id="Vector_9" d="M44.799 13.7458L42.192 7.24924C42.1601 7.17088 42.0852 7.11951 42.0016 7.11951H38.8968C38.7504 7.11951 38.6505 7.27017 38.7074 7.40691L43.0179 17.8632L40.3919 23.9349C40.3325 24.0724 40.4324 24.2257 40.5806 24.2257H43.5854C43.6664 24.2257 43.7405 24.177 43.7732 24.102L51.0886 7.41036C51.1489 7.27278 51.049 7.11862 50.9009 7.11862H47.7995C47.7177 7.11862 47.6437 7.16737 47.6109 7.24318L44.799 13.7449V13.7458Z" fill="#DDD6FE"/>
<path id="Vector_10" d="M116.754 7.29453H113.484C113.343 7.29453 113.244 7.43299 113.289 7.56795L117.048 19.0258C117.075 19.1111 117.155 19.1677 117.243 19.1677H120.513C120.653 19.1677 120.752 19.0293 120.707 18.8943L116.948 7.4365C116.921 7.35112 116.841 7.29453 116.754 7.29453Z" fill="#DDD6FE"/>
<path id="Vector_11" d="M122.912 7.29453H119.641C119.501 7.29453 119.402 7.43299 119.447 7.56795L123.206 19.0258C123.233 19.1111 123.313 19.1677 123.401 19.1677H126.671C126.811 19.1677 126.91 19.0293 126.865 18.8943L123.106 7.4365C123.079 7.35112 122.999 7.29453 122.912 7.29453Z" fill="#DDD6FE"/>
<path id="Vector_12" d="M128.295 11.6149C129.485 11.6149 130.45 10.6394 130.45 9.43597C130.45 8.23264 129.485 7.25708 128.295 7.25708C127.105 7.25708 126.14 8.23264 126.14 9.43597C126.14 10.6394 127.105 11.6149 128.295 11.6149Z" fill="#DDD6FE"/>
</g>
<defs>
<clipPath id="clip0_76_7375">
<rect width="130" height="23.4839" fill="white" transform="translate(0.5 0.758057)"/>
</clipPath>
</defs>
</svg>