<svg width="25" height="24" viewBox="0 0 25 24" fill="none" xmlns="http://www.w3.org/2000/svg">
<g clip-path="url(#clip0_48_1180)">
<path d="M11.0439 3.85999L2.57393 18C2.3993 18.3024 2.30689 18.6453 2.30592 18.9945C2.30494 19.3437 2.39542 19.6871 2.56835 19.9905C2.74129 20.2939 2.99065 20.5467 3.29163 20.7238C3.59262 20.9009 3.93473 20.9962 4.28393 21H21.2239C21.5731 20.9962 21.9152 20.9009 22.2162 20.7238C22.5172 20.5467 22.7666 20.2939 22.9395 19.9905C23.1124 19.6871 23.2029 19.3437 23.2019 18.9945C23.201 18.6453 23.1086 18.3024 22.9339 18L14.4639 3.85999C14.2857 3.5661 14.0346 3.32311 13.7351 3.15447C13.4356 2.98584 13.0977 2.89725 12.7539 2.89725C12.4102 2.89725 12.0723 2.98584 11.7727 3.15447C11.4732 3.32311 11.2222 3.5661 11.0439 3.85999Z" stroke="#343541" stroke-width="1.5" stroke-linecap="round" stroke-linejoin="round"/>
<path d="M12.7539 9V13" stroke="#343541" stroke-width="1.5" stroke-linecap="round" stroke-linejoin="round"/>
<path d="M12.7539 17H12.7639" stroke="#343541" stroke-width="1.5" stroke-linecap="round" stroke-linejoin="round"/>
</g>
<defs>
<clipPath id="clip0_48_1180">
<rect width="24" height="24" fill="white" transform="translate(0.753906)"/>
</clipPath>
</defs>
</svg>
