<svg width="50" height="50" viewBox="0 0 50 50" fill="none" xmlns="http://www.w3.org/2000/svg">
<path d="M23.1905 32.6306C23.4814 32.3413 23.621 31.9917 23.6094 31.5819C23.5968 31.172 23.445 30.8224 23.1541 30.5331L19.0447 26.4466H35.2641C35.6762 26.4466 36.022 26.3077 36.3013 26.03C36.5796 25.7532 36.7188 25.4099 36.7188 25.0001C36.7188 24.5902 36.5796 24.2464 36.3013 23.9687C36.022 23.6919 35.6762 23.5535 35.2641 23.5535H19.0447L23.1905 19.4308C23.4814 19.1415 23.6269 18.7977 23.6269 18.3995C23.6269 18.0021 23.4814 17.6588 23.1905 17.3695C22.8995 17.0802 22.5538 16.9355 22.1533 16.9355C21.7537 16.9355 21.4085 17.0802 21.1176 17.3695L14.4625 23.9875C14.3171 24.1321 14.2138 24.2888 14.1527 24.4576C14.0926 24.6264 14.0625 24.8072 14.0625 25.0001C14.0625 25.1929 14.0926 25.3738 14.1527 25.5425C14.2138 25.7113 14.3171 25.868 14.4625 26.0126L21.1539 32.6668C21.4206 32.932 21.7537 33.0646 22.1533 33.0646C22.5538 33.0646 22.8995 32.9199 23.1905 32.6306Z" fill="#5E0095" fill-opacity="0.66"/>
<circle cx="25" cy="25" r="24.5" stroke="#E2E2E2"/>
</svg>
