<svg version="1.2" xmlns="http://www.w3.org/2000/svg" viewBox="0 0 29 27" width="29" height="27">
	<title>call-history-svgrepo-com(1)-svg</title>
	<style>
		.s0 { fill: #ffffff } 
	</style>
	<g id="Layer">
	</g>
	<g id="Layer">
		<g id="Layer">
			<path id="Layer" class="s0" d="m15.5 2c-5.9 0-10.7 4.6-11.1 10.4 0 0.2 0 0.3 0 0.4h-1.8c-0.5 0-0.8 0.6-0.5 1l3 3.7c0.2 0.2 0.6 0.2 0.9 0l3-3.7c0.3-0.4 0-1-0.5-1h-1.8c0-0.1 0-0.2 0-0.4 0.4-4.5 4.2-8 8.7-8 5.2 0 9.3 4.5 8.7 9.8-0.4 3.9-3.9 7.5-7.7 7.8-2.9 0.3-5.5-0.7-7.4-2.8-0.2-0.3-0.6-0.4-0.9 0l-0.9 1.1c-0.2 0.3-0.1 0.5 0.1 0.7 2.2 2.2 5.1 3.5 8.3 3.5 5.7-0.1 10.5-4.7 10.9-10.5 0.5-6.5-4.6-12-11-12z"/>
		</g>
		<g id="Layer">
			<path id="Layer" class="s0" d="m14.4 10.4c0.2-0.4 0.2-0.9-0.1-1.3l-0.8-1.1c-0.4-0.5-1.1-0.5-1.6-0.1l-0.9 1q-0.3 0.3-0.3 0.8c0.1 2.2 1.1 4.3 2.6 5.8 1.4 1.4 3.5 2.5 5.7 2.6 0.3 0 0.6-0.1 0.8-0.3l0.9-1c0.5-0.4 0.4-1.1-0.1-1.5l-1-0.9c-0.4-0.3-0.9-0.3-1.3 0l-1 0.7c-0.2 0.2-0.4 0.1-0.5 0l-1.6-1.5-1.5-1.7c-0.2-0.1-0.2-0.3-0.1-0.5z"/>
		</g>
	</g>
</svg>