<svg width="24" height="24" viewBox="0 0 24 24" fill="none" xmlns="http://www.w3.org/2000/svg">
<path d="M0 13.2903C-7.42845e-06 15.9978 1.79325 18.2892 4.26693 19.0663C4.57305 20.7966 5.59338 22.3158 7.09972 23.2053C9.40721 24.559 12.2567 24.1266 14.1558 22.3383C15.7836 22.9341 17.5885 22.7958 19.0997 21.9149C21.4072 20.5612 22.4634 17.8374 21.8889 15.272C23.2105 14.1375 23.9951 12.48 24 10.7097C24 8.00216 22.2067 5.71079 19.7331 4.93373C19.427 3.20335 18.4066 1.68415 16.9003 0.794701C14.5928 -0.55905 11.7433 -0.126648 9.84421 1.66168C8.21641 1.06587 6.4115 1.20418 4.90028 2.08505C2.59279 3.43879 1.53657 6.16256 2.11114 8.72795C0.78946 9.86253 0.00487439 11.52 0 13.2903ZM1.74786 13.2903C1.74786 12.2214 2.14212 11.2456 2.79056 10.4905C2.79203 10.4931 2.79308 10.4958 2.79456 10.4984L5.74375 15.6891L7.06045 14.5438L4.31383 9.70968C4.2897 9.6672 4.25049 9.59838 4.22717 9.55544C3.07998 7.44415 3.76153 4.80397 5.77421 3.62319C6.68525 3.08871 7.71404 2.94774 8.68174 3.14085C8.68026 3.14344 8.67848 3.14573 8.677 3.14833L5.72779 8.339L7.36225 8.92505L10.1089 4.09091C10.133 4.04844 10.1721 3.97954 10.197 3.93754C11.4228 1.87236 14.0137 1.15205 16.0264 2.33284C16.9374 2.86732 17.5719 3.70218 17.8912 4.65033C17.8882 4.65032 17.8854 4.64988 17.8824 4.64988H11.984L12.3018 6.38125H17.7951C17.8433 6.38125 17.9216 6.38116 17.9698 6.38209C20.3428 6.4282 22.2521 8.34807 22.2521 10.7096C22.2521 11.7786 21.8579 12.7544 21.2094 13.5094C21.208 13.5069 21.2069 13.5041 21.2054 13.5015L18.2562 8.31088L16.9396 9.45617L19.6862 14.2903C19.7103 14.3328 19.7495 14.4016 19.7728 14.4446C20.92 16.5558 20.2385 19.196 18.2258 20.3768C17.3148 20.9113 16.286 21.0522 15.3183 20.8591C15.3198 20.8565 15.3215 20.8543 15.323 20.8517L18.2722 15.661L16.6378 15.0749L13.8911 19.9091C13.867 19.9515 13.8279 20.0204 13.803 20.0624C12.5772 22.1276 9.98633 22.8479 7.97365 21.6672C7.06262 21.1327 6.42809 20.2978 6.10882 19.3497C6.11177 19.3497 6.11461 19.3501 6.11756 19.3501H12.016L11.6982 17.6188H6.20495C6.15668 17.6188 6.07842 17.6188 6.03017 17.6179C3.6572 17.5718 1.74786 15.6519 1.74786 13.2903ZM8.90527 12.0324L10.4526 14.7558H13.5474L15.0947 12.0324L13.5474 9.30905H10.4526L8.90527 12.0324ZM10.011 12.0324L11.0168 10.2622H13.0284L14.0342 12.0324L13.0284 13.8027H11.0168L10.011 12.0324Z" fill="#0F172A"/>
</svg>
