<?xml version="1.0" encoding="UTF-8"?>
<!--Generator: Apple Native CoreSVG 232.5-->
<!DOCTYPE svg PUBLIC "-//W3C//DTD SVG 1.1//EN" "http://www.w3.org/Graphics/SVG/1.1/DTD/svg11.dtd">
<svg version="1.1" xmlns="http://www.w3.org/2000/svg" xmlns:xlink="http://www.w3.org/1999/xlink" width="476.758" height="363.867">
 <g>
  <rect height="363.867" opacity="0" width="476.758" x="0" y="0"/>
  <path d="M394.739 162.504C388.415 161.208 381.875 160.547 375.195 160.547C371.554 160.547 367.954 160.743 364.412 161.149C354.732 100.003 302.112 53.9062 238.086 53.9062C167.188 53.9062 110.742 110.742 110.742 181.836C110.742 252.93 167.383 309.766 238.281 309.766C253.639 309.766 268.331 307.113 281.86 302.1C285.827 311.39 291.154 319.964 297.607 327.556C279.252 335.24 259.192 339.453 238.281 339.453C152.344 339.453 80.6641 267.969 80.6641 181.836C80.6641 95.7031 152.148 24.2188 238.086 24.2188C317.669 24.2188 385.08 85.2442 394.739 162.504ZM250.195 86.7188L250.195 187.305C250.195 193.945 244.922 199.219 238.086 199.219L160.156 199.219C153.32 199.219 148.242 193.945 148.242 187.305C148.242 180.469 153.32 175.195 160.156 175.195L226.172 175.195L226.172 86.7188C226.172 79.8828 231.445 74.6094 238.086 74.6094C244.922 74.6094 250.195 79.8828 250.195 86.7188Z" fill="#8338ec"/>
  <path d="M453.906 262.109C453.906 305.273 417.773 341.016 375.195 341.016C332.031 341.016 296.484 305.664 296.484 262.109C296.484 218.945 332.031 183.398 375.195 183.398C418.359 183.398 453.906 218.945 453.906 262.109ZM402.93 226.758L365.625 278.711L347.07 258.594C345.312 256.641 342.578 255.078 339.062 255.078C333.398 255.078 328.906 259.57 328.906 265.43C328.906 267.773 329.688 270.898 331.445 273.047L357.812 301.758C359.961 304.102 363.281 305.273 366.016 305.273C369.727 305.273 373.047 303.711 374.805 301.367L419.922 238.672C421.484 236.523 422.07 234.18 422.07 232.422C422.07 226.562 417.188 222.266 411.719 222.266C407.812 222.266 404.883 224.023 402.93 226.758Z" fill="#8338ec"/>
 </g>
</svg>