<svg width="29" height="28" viewBox="0 0 29 28" fill="none" xmlns="http://www.w3.org/2000/svg">
<path d="M25.4614 9.89724L24.9731 9.6256C24.8973 9.58342 24.86 9.56225 24.8234 9.54031C24.4592 9.3222 24.1523 9.02085 23.9284 8.66031C23.9058 8.62403 23.8846 8.58598 23.8412 8.51079C23.7978 8.4357 23.7758 8.39765 23.7556 8.35998C23.5548 7.98488 23.4461 7.56687 23.4396 7.14141C23.4389 7.09864 23.4391 7.05494 23.4405 6.96806L23.4501 6.40104C23.4654 5.49367 23.473 5.03858 23.3455 4.63016C23.2322 4.26738 23.0427 3.93323 22.7897 3.64967C22.5037 3.32913 22.1078 3.10046 21.3151 2.64368L20.6567 2.26427C19.8662 1.80877 19.4709 1.58094 19.0512 1.49409C18.68 1.41725 18.2968 1.42081 17.9269 1.50386C17.5094 1.59758 17.119 1.83135 16.3386 2.29861L16.3342 2.30073L15.8624 2.58321C15.7878 2.62788 15.7501 2.65039 15.7127 2.67118C15.3416 2.87747 14.9274 2.99154 14.5031 3.00516C14.4604 3.00653 14.4169 3.00653 14.3299 3.00653C14.2434 3.00653 14.1981 3.00653 14.1554 3.00516C13.7302 2.99148 13.3151 2.87679 12.9435 2.66965C12.906 2.64877 12.869 2.62608 12.7942 2.5812L12.3195 2.29617C11.5338 1.82448 11.1403 1.58828 10.7205 1.49409C10.3491 1.41075 9.96462 1.40845 9.592 1.48628C9.17127 1.57416 8.77581 1.80367 7.9849 2.26271L7.98139 2.26427L7.33117 2.64165L7.32397 2.64605C6.54018 3.10095 6.14734 3.32896 5.86372 3.64818C5.61204 3.93146 5.42392 4.26508 5.31132 4.6269C5.18405 5.03588 5.19083 5.49195 5.20617 6.40359L5.2157 6.96981C5.21714 7.05555 5.21964 7.09816 5.21901 7.14033C5.2127 7.56665 5.1026 7.98552 4.90112 8.36128C4.88119 8.39844 4.85972 8.4356 4.81685 8.50983C4.77394 8.58411 4.75316 8.62105 4.73091 8.6569C4.50594 9.01937 4.19764 9.32248 3.83123 9.54096C3.79499 9.56258 3.75679 9.58336 3.68174 9.62495L3.19966 9.89211C2.39757 10.3366 1.99662 10.559 1.70487 10.8756C1.44677 11.1556 1.25179 11.4878 1.13278 11.8496C0.998243 12.2585 0.998356 12.717 1.00044 13.6341L1.00214 14.3836C1.00421 15.2945 1.00705 15.7496 1.14188 16.1558C1.26117 16.5151 1.45472 16.8453 1.71138 17.1236C2.00148 17.4383 2.39844 17.6593 3.19445 18.1022L3.67224 18.368C3.75355 18.4132 3.79447 18.4355 3.83368 18.4591C4.19677 18.6778 4.50265 18.9801 4.7257 19.3404C4.7498 19.3794 4.77293 19.4198 4.81919 19.5006C4.86487 19.5804 4.88825 19.6203 4.90937 19.6603C5.10494 20.0306 5.20964 20.442 5.21678 20.8606C5.21755 20.9059 5.21689 20.9516 5.21534 21.0436L5.20617 21.5869C5.19073 22.5017 5.184 22.9596 5.31202 23.3697C5.42528 23.7325 5.61458 24.0666 5.86763 24.3502C6.15366 24.6708 6.55019 24.8993 7.34289 25.3561L8.00116 25.7354C8.79163 26.1909 9.18672 26.4185 9.60638 26.5053C9.97764 26.5822 10.361 26.5792 10.7309 26.4961C11.149 26.4023 11.5408 26.1677 12.3234 25.6991L12.7951 25.4166C12.8698 25.3719 12.9076 25.3495 12.9449 25.3287C13.316 25.1224 13.7298 25.0078 14.1541 24.9942C14.1968 24.9928 14.2403 24.9928 14.3273 24.9928C14.4145 24.9928 14.458 24.9928 14.5008 24.9942C14.9261 25.0078 15.3424 25.1229 15.714 25.33C15.7467 25.3482 15.7794 25.3679 15.837 25.4025L16.3385 25.7036C17.1243 26.1754 17.5169 26.4108 17.9367 26.505C18.3082 26.5884 18.6929 26.5918 19.0655 26.514C19.4862 26.4261 19.8824 26.1961 20.6729 25.7373L21.3329 25.3543C22.1172 24.8991 22.5104 24.6708 22.7941 24.3515C23.0458 24.0682 23.2342 23.7348 23.3468 23.3729C23.4731 22.9669 23.4655 22.5144 23.4504 21.6159L23.4405 21.0299C23.4391 20.9442 23.4389 20.9015 23.4396 20.8593C23.4459 20.433 23.5542 20.0138 23.7556 19.6381C23.7755 19.601 23.7972 19.5635 23.8399 19.4895C23.8828 19.4153 23.905 19.3782 23.9273 19.3424C24.1522 18.9799 24.4609 18.6765 24.8273 18.4581C24.8631 18.4367 24.8999 18.4163 24.9732 18.3757L24.9757 18.3745L25.4578 18.1074C26.2599 17.6629 26.6616 17.4402 26.9534 17.1236C27.2114 16.8436 27.4062 16.5119 27.5252 16.1501C27.6589 15.7436 27.6579 15.2877 27.6558 14.3814L27.6541 13.6158C27.652 12.7049 27.6509 12.2499 27.5161 11.8437C27.3968 11.4844 27.2021 11.1541 26.9455 10.8758C26.6557 10.5615 26.2582 10.3403 25.4637 9.89837L25.4614 9.89724Z" stroke="#0F172A" stroke-width="2" stroke-linecap="round" stroke-linejoin="round"/>
<path d="M8.99523 13.9999C8.99523 16.9455 11.383 19.3333 14.3286 19.3333C17.2741 19.3333 19.6619 16.9455 19.6619 13.9999C19.6619 11.0544 17.2741 8.66662 14.3286 8.66662C11.383 8.66662 8.99523 11.0544 8.99523 13.9999Z" stroke="#0F172A" stroke-width="2" stroke-linecap="round" stroke-linejoin="round"/>
</svg>
