<svg version="1.2" xmlns="http://www.w3.org/2000/svg" viewBox="0 0 24 24" width="24" height="24">
	<title>delete-icon-svg</title>
	<style>
		.s0 { fill: #4c1d95 } 
	</style>
	<path id="Layer" fill-rule="evenodd" class="s0" d="m5.8 20.3l-1.8-12.3h16l-1.8 12.3q0 0.3-0.2 0.7-0.2 0.3-0.4 0.5-0.3 0.2-0.6 0.4-0.4 0.1-0.7 0.1h-8.6q-0.3 0-0.7-0.1-0.3-0.2-0.6-0.4-0.2-0.2-0.4-0.5-0.2-0.4-0.2-0.7zm15.9-16q0.3 0.3 0.3 0.7 0 0.4-0.3 0.7-0.3 0.3-0.7 0.3h-18q-0.4 0-0.7-0.3-0.3-0.3-0.3-0.7 0-0.4 0.3-0.7 0.3-0.3 0.7-0.3h5v-1q0-0.2 0.1-0.4 0.1-0.2 0.2-0.3 0.1-0.1 0.3-0.2 0.2-0.1 0.4-0.1h6q0.2 0 0.4 0.1 0.2 0.1 0.3 0.2 0.1 0.1 0.2 0.3 0.1 0.2 0.1 0.4v1h5q0.4 0 0.7 0.3z"/>
</svg>