<?xml version="1.0" encoding="UTF-8" standalone="no"?>
<!-- Created with Inkscape (http://www.inkscape.org/) -->

<svg
   width="384.12213mm"
   height="120.4873mm"
   viewBox="0 0 384.12213 120.4873"
   version="1.1"
   id="svg1"
   xml:space="preserve"
   xmlns:xlink="http://www.w3.org/1999/xlink"
   xmlns="http://www.w3.org/2000/svg"
   xmlns:svg="http://www.w3.org/2000/svg"><defs
     id="defs1"><linearGradient
       id="linearGradient13"><stop
         style="stop-color:#fe6cab;stop-opacity:1;"
         offset="0"
         id="stop13" /><stop
         style="stop-color:#7566fe;stop-opacity:1;"
         offset="1"
         id="stop14" /></linearGradient><linearGradient
       xlink:href="#linearGradient13"
       id="linearGradient24"
       gradientUnits="userSpaceOnUse"
       gradientTransform="matrix(0.83333025,0,0,0.89082968,472.64916,-144.5034)"
       x1="-297.37619"
       y1="252.09877"
       x2="366.97086"
       y2="252.09877" /><linearGradient
       xlink:href="#linearGradient13"
       id="linearGradient26"
       gradientUnits="userSpaceOnUse"
       x1="-297.37619"
       y1="252.09877"
       x2="366.97086"
       y2="252.09877"
       gradientTransform="matrix(0.6473131,0,0,0.6473131,345.74097,-81.364288)" /><linearGradient
       xlink:href="#linearGradient13"
       id="linearGradient29"
       gradientUnits="userSpaceOnUse"
       gradientTransform="matrix(0.83333025,0,0,0.89082968,722.81257,-144.5034)"
       x1="-297.37619"
       y1="252.09877"
       x2="366.97086"
       y2="252.09877" /><linearGradient
       xlink:href="#linearGradient13"
       id="linearGradient30"
       gradientUnits="userSpaceOnUse"
       gradientTransform="matrix(0.79999934,0,0,0.79999934,315.38207,-139.52837)"
       x1="-297.37619"
       y1="252.09877"
       x2="366.97086"
       y2="252.09877" /></defs><g
     id="layer2"
     style="display:inline"
     transform="translate(-224.83637,-19.774937)"><path
       id="path25"
       style="font-weight:600;font-size:566.667px;font-family:Inter;-inkscape-font-specification:'Inter Semi-Bold';white-space:pre;display:inline;opacity:1;fill:url(#linearGradient26);fill-opacity:1;stroke-width:0.169543"
       d="m 434.48435,49.517787 c -0.45431,-1.13e-4 -0.88999,0.180263 -1.21127,0.501427 l -4.90121,4.901554 c -0.66885,0.668854 -0.66885,1.753317 0,2.422173 l 4.90121,4.901216 c 0.66887,0.668903 1.75333,0.668903 2.42218,0 l 4.90154,-4.901216 c 0.66884,-0.668856 0.66884,-1.753319 0,-2.422173 l -4.90154,-4.901554 c -0.32119,-0.321085 -0.75677,-0.501448 -1.21091,-0.501427 z m -183.28549,1.271465 c -0.66211,0 -1.19887,0.536757 -1.19887,1.198875 V 108.0126 c 0,0.66211 0.53676,1.19888 1.19887,1.19888 h 7.66362 c 0.6621,0 1.19886,-0.53677 1.19886,-1.19888 V 71.667257 c 6.5e-4,-0.580621 0.79923,-0.739064 1.02157,-0.202714 l 15.05389,36.467437 c 0.27686,0.67073 0.93088,1.10828 1.65648,1.10823 h 5.11964 c 0.72568,-1e-5 1.37982,-0.43734 1.65715,-1.10789 l 15.08401,-36.462094 c 0.21589,-0.520134 0.99034,-0.366134 0.99081,0.197031 V 108.0126 c 0,0.66211 0.53678,1.19888 1.19888,1.19888 h 7.66357 c 0.66214,0 1.19888,-0.53677 1.19888,-1.19888 V 51.988127 c 0,-0.662118 -0.53675,-1.198875 -1.19888,-1.198875 h -10.43298 c -0.72665,-1.11e-4 -1.38266,0.435053 -1.66517,1.10455 l -16.50632,39.121751 c -0.32779,0.77696 -1.43142,0.76957 -1.74881,-0.0117 L 263.28164,51.900148 c -0.27258,-0.671568 -0.92502,-1.110899 -1.6498,-1.110899 z m 244.71798,0 c -0.66215,-7e-6 -1.19891,0.536752 -1.19891,1.198875 V 108.0126 c 0,0.66212 0.53676,1.19888 1.19891,1.19888 h 7.83309 c 0.66218,0 1.19891,-0.53676 1.19891,-1.19888 V 51.988127 c 0,-0.662123 -0.53673,-1.198882 -1.19891,-1.198875 z M 371.4807,54.897016 c -0.66211,0 -1.19885,0.536758 -1.19885,1.198878 v 9.298994 h -4.96212 c -0.66212,0 -1.19888,0.536753 -1.19888,1.198876 v 5.589638 c 0,0.662126 0.53676,1.198878 1.19888,1.198878 h 4.96212 v 23.162693 c 0,0.66212 -0.0106,1.73638 0.0322,2.39709 0.10799,1.738717 0.48498,3.273377 1.13131,4.604497 0.28903,0.59525 0.87948,1.4971 1.30089,2.00739 0.86307,1.04506 1.89636,1.89946 3.09956,2.563 0.57956,0.31963 1.57225,0.73542 2.20241,0.93798 1.42176,0.457 2.95516,0.7092 4.60052,0.75666 0.66174,0.019 1.73564,-0.0113 2.39606,-0.0576 0.45969,-0.0323 0.89231,-0.0762 1.29723,-0.13147 0.6558,-0.0897 1.70435,-0.32488 2.34523,-0.49107 0.0106,-0.002 0.0208,-0.005 0.0306,-0.008 0.64055,-0.16695 1.03709,-0.8648 0.89882,-1.51231 l -1.28284,-6.00712 c -0.10529,-0.49349 -0.58755,-0.79228 -1.08348,-0.69979 -0.11015,0.0205 -0.22719,0.0414 -0.35089,0.0629 -0.17871,0.0322 -0.36361,0.059 -0.55528,0.0803 -0.65773,0.0731 -1.72316,0.0754 -2.35796,-0.0284 -0.65232,-0.10668 -1.63737,-0.47503 -2.09302,-0.87038 -0.49803,-0.432107 -1.02439,-1.399297 -1.17511,-2.041837 -0.0634,-0.26986 -0.11177,-0.56232 -0.14582,-0.87776 -0.0712,-0.65797 -0.0598,-1.73363 -0.0598,-2.39574 V 73.382361 h 7.36456 c 0.66212,0 1.19886,-0.536752 1.19886,-1.198875 v -5.589639 c 0,-0.662123 -0.53674,-1.198877 -1.19886,-1.198877 h -7.36456 v -9.298994 c 0,-0.662119 -0.53675,-1.198876 -1.19887,-1.198876 z m 45.29278,9.870334 c -0.60413,-0.0044 -1.58411,0.0083 -2.18566,0.06252 -1.94498,0.175163 -4.81545,0.798132 -6.56306,3.094868 -0.28146,0.36983 -0.46565,0.323541 -0.46565,-0.141501 v -1.62772 c -1.3e-4,-0.420169 -0.34082,-0.760703 -0.761,-0.760671 h -7.95996 c -0.66214,-5e-6 -1.19886,0.536751 -1.19886,1.198876 v 41.418838 c 0,0.66212 0.53672,1.19888 1.19886,1.19887 h 7.83284 c 0.66211,1e-5 1.19889,-0.53675 1.19889,-1.19887 V 84.650842 c 0,-0.662126 -0.007,-1.737576 0.0615,-2.395752 0.10011,-0.953115 0.32403,-1.842415 0.67101,-2.668373 0.25618,-0.609953 0.80731,-1.538164 1.21589,-2.05856 0.51309,-0.653352 1.10789,-1.223945 1.78465,-1.712014 0.53669,-0.387033 1.48384,-0.903292 2.09903,-1.14703 0.86049,-0.340934 1.77706,-0.560068 2.74966,-0.657646 0.65852,-0.06607 1.73422,-0.06246 2.39473,-0.01773 0.0983,0.0067 0.19707,0.01418 0.29603,0.02242 0.65973,0.05516 1.59453,0.180904 2.08805,0.263254 0.65235,0.108861 1.16606,-0.264466 1.16606,-0.92659 v -7.101609 c 0,-0.662124 -0.52847,-1.302206 -1.18783,-1.358108 0,-1.11e-4 0,-2.16e-4 -0.005,-3.29e-4 -0.32479,-0.02745 -0.8523,-0.05704 -1.17778,-0.0679 -0.83799,-0.02789 -2.25082,-0.04956 -3.25345,-0.05754 z m -78.52385,0.0813 c -2.12679,0.08731 -4.11759,0.40949 -5.97264,0.967066 -0.63398,0.190571 -1.64525,0.55419 -2.2529,0.816872 -1.64326,0.710349 -3.10376,1.636682 -4.38141,2.779095 -0.49345,0.441237 -1.24056,1.215241 -1.65947,1.727731 -1.09202,1.335954 -1.9487,2.881685 -2.57038,4.63763 -0.22093,0.624042 0.16848,1.218659 0.82394,1.312611 l 7.17884,1.028948 c 0.65543,0.09395 1.35289,-0.344144 1.65884,-0.930602 0.8883,-1.702857 2.88783,-4.046182 7.23274,-4.412839 0.65958,-0.05567 1.73599,-0.05636 2.39437,0.01083 2.41248,0.245888 5.57369,1.371935 6.15131,6.700867 0,0.09453 0.0494,0.739861 -0.21441,1.34205 -0.37818,0.863622 -1.30491,1.452642 -3.1551,1.845822 -0.64752,0.1376 -1.7126,0.276207 -2.37,0.353574 -3.33353,0.392294 -6.69307,0.652342 -9.96835,1.393226 -0.64575,0.146075 -1.68625,0.413378 -2.31881,0.608802 -3.23413,0.99918 -5.6305,2.579364 -7.18926,4.74266 -0.38683,0.53691 -0.91056,1.4795 -1.14969,2.09637 -1.18682,3.06185 -1.26243,7.73228 0.45595,11.248497 0.29053,0.59454 0.87639,1.49848 1.29051,2.01473 2.98573,3.7219 7.41742,4.74706 10.73136,4.93034 0.66105,0.0366 1.7356,0.0371 2.39678,0.003 4.91455,-0.25324 8.0143,-2.1236 11.14313,-5.93317 0.42021,-0.51164 0.74361,-0.40354 0.74361,0.25857 v 3.62139 c 0,0.66213 0.53675,1.19889 1.19889,1.19889 h 7.4371 c 0.6621,0 1.19887,-0.53676 1.19887,-1.19889 V 81.08505 c 0,-0.662117 0.004,-1.73599 -0.031,-2.397086 -0.10091,-1.889512 -0.44717,-3.553896 -1.03799,-4.993203 -0.25132,-0.612223 -0.76147,-1.559935 -1.12194,-2.115095 -0.71961,-1.108323 -1.56961,-2.059956 -2.5496,-2.854358 -0.51413,-0.416768 -1.41296,-1.007603 -1.98833,-1.335027 -1.0999,-0.625932 -2.26804,-1.128777 -3.50399,-1.508963 -0.63273,-0.194643 -1.67813,-0.442658 -2.32817,-0.568334 -1.28824,-0.249056 -2.58013,-0.402959 -3.87559,-0.461621 -0.6614,-0.02998 -1.73556,-0.02985 -2.39713,-0.0024 z m 92.15673,0.546255 c -0.6621,3.3e-5 -1.19886,0.536778 -1.19886,1.198877 v 41.418838 c 0,0.6621 0.53676,1.19884 1.19886,1.19887 h 7.83317 c 0.66213,0 1.19887,-0.53675 1.19887,-1.19887 V 66.593773 c 0,-0.662123 -0.53674,-1.198883 -1.19887,-1.198876 z m 18.69061,0 c -0.72201,2.6e-5 -1.17078,0.784538 -0.80478,1.406943 l 11.45185,19.46805 c 0.37448,0.636609 0.37,1.427244 -0.0115,2.059571 l -11.76336,19.484441 c -0.37078,0.61407 0.0715,1.39762 0.78875,1.39758 h 8.02119 c 0.74189,-3e-5 1.42731,-0.396 1.79796,-1.03865 l 7.90214,-13.698127 c 0.26671,-0.46232 0.93352,-0.46376 1.20222,-0.002 l 7.9787,13.703157 c 0.3735,0.64139 1.05978,1.03594 1.80197,1.03597 h 7.93652 c 0.71621,5e-5 1.15675,-0.78326 0.78481,-1.39524 L 474.34213,88.327727 c -0.38295,-0.630297 -0.38592,-1.420704 -0.007,-2.053879 l 11.63305,-19.477751 c 0.36852,-0.617491 -0.0763,-1.401169 -0.7954,-1.401258 h -7.99309 c -0.73947,-4.5e-5 -1.42028,0.402285 -1.77695,1.050022 l -7.74619,14.074106 c -0.24975,0.453638 -0.90237,0.451437 -1.14904,-0.0037 L 458.889,66.44922 c -0.35187,-0.649489 -1.03123,-1.054066 -1.76988,-1.05404 z m 64.11624,0 c -0.58544,-9.6e-5 -0.99531,0.578356 -0.80111,1.130636 l 14.94582,42.467849 c 0.25717,0.73086 0.25078,1.52863 -0.0183,2.25525 l -0.0439,0.1191 c -0.22978,0.62096 -0.5974,1.63107 -0.88515,2.22716 -0.29852,0.61847 -0.62381,1.14786 -0.97541,1.5879 -0.41233,0.51609 -1.25708,1.20492 -1.85344,1.48888 -0.28347,0.13498 -0.57872,0.24089 -0.88546,0.31782 -0.64086,0.16068 -1.7251,0.16499 -2.38342,0.0976 -0.5163,-0.0528 -1.05899,-0.14305 -1.62804,-0.27095 -0.64592,-0.14518 -1.31186,0.21292 -1.49927,0.84796 l -1.69528,5.74451 c -0.18742,0.63506 0.15968,1.35316 0.79811,1.52671 0.15543,0.0422 0.31751,0.0834 0.48641,0.1233 0.64418,0.15275 1.70126,0.34625 2.35828,0.42716 0.48114,0.0592 0.97758,0.10167 1.4892,0.12754 0.66125,0.0333 1.73564,0.0334 2.39681,-0.001 1.69414,-0.0901 3.22325,-0.37612 4.58747,-0.85768 0.62406,-0.22029 1.60285,-0.6676 2.17993,-0.99179 1.13664,-0.63853 2.15666,-1.43156 3.05979,-2.37936 0.45657,-0.4792 1.12912,-1.3188 1.50759,-1.86187 0.80415,-1.15382 1.49714,-2.44766 2.0793,-3.88164 0.24901,-0.61343 0.60175,-1.62771 0.82254,-2.25189 L 553.8369,66.525111 c 0.19491,-0.551367 -0.21402,-1.129774 -0.79877,-1.129969 h -8.48311 c -0.71201,-7.4e-5 -1.34013,0.465734 -1.54683,1.147032 l -9.33711,30.796179 c -0.10539,0.34928 -0.599,0.35243 -0.7091,0.004 l -9.73427,-30.804552 c -0.2151,-0.680487 -0.84646,-1.143044 -1.56014,-1.143011 z m -166.96414,23.39851 c 0.38476,-0.0051 0.63222,0.238996 0.63222,0.735584 v 2.765374 c 0,0.66213 0.0106,1.73865 -0.0786,2.39442 -0.10316,0.77003 -0.30813,1.50976 -0.61482,2.21913 -0.26253,0.60728 -0.81747,1.53324 -1.23031,2.0502 -0.50349,0.63042 -1.09777,1.191587 -1.78295,1.683237 -0.53763,0.38581 -1.4839,0.90329 -2.10138,1.14101 -0.93003,0.35804 -1.94859,0.58341 -3.05573,0.67638 -0.65961,0.0554 -1.73584,0.0566 -2.39473,-0.006 -1.13124,-0.10742 -2.13973,-0.37268 -3.02564,-0.7958 -0.59673,-0.28501 -1.49089,-0.90414 -1.92308,-1.40359 -0.55313,-0.639207 -0.91099,-1.410717 -1.07309,-2.314797 -0.11673,-0.65088 -0.11776,-1.73598 0.004,-2.38571 0.0701,-0.37195 0.1748,-0.71899 0.31477,-1.04133 0.26288,-0.60526 0.96066,-1.44557 1.47216,-1.86421 0.28265,-0.23134 0.59139,-0.44287 0.92659,-0.6349 0.57403,-0.32884 1.58006,-0.71659 2.21344,-0.90886 0.56426,-0.17128 1.15858,-0.31759 1.78294,-0.43887 0.6499,-0.12625 1.71417,-0.26945 2.36967,-0.36295 0.0106,-0.001 0.0195,-0.003 0.0288,-0.004 0.65546,-0.0935 1.71791,-0.24572 2.37166,-0.35056 0.14363,-0.023 0.28775,-0.0466 0.43184,-0.0706 0.65317,-0.10853 1.71006,-0.297523 2.3556,-0.444563 0.0712,-0.01619 0.14143,-0.03264 0.21106,-0.0492 0.64412,-0.153002 1.42168,-0.385057 1.73846,-0.501431 0.15469,-0.05684 0.29825,-0.08597 0.42651,-0.08765 z" /></g><g
     id="layer3"
     transform="translate(-224.83637,-19.774937)"><path
       id="path24"
       style="font-weight:600;font-size:566.667px;font-family:Inter;-inkscape-font-specification:'Inter Semi-Bold';white-space:pre;display:inline;fill:url(#linearGradient24);fill-opacity:1;stroke-width:0.225669"
       d="m 227.04142,19.774938 c -1.21771,2e-6 -2.20504,1.055424 -2.20504,2.357152 v 115.54794 c 0,1.30172 0.98733,2.35715 2.20504,2.35715 h 27.09395 c 1.2177,0 2.20451,-1.05543 2.20452,-2.35715 v -8.39653 c -1e-5,-1.30171 -0.98682,-2.3567 -2.20452,-2.3567 h -11.93054 c -1.21771,0 -2.20451,-1.05543 -2.20452,-2.35716 V 35.289081 c 0,-1.301731 0.98681,-2.356712 2.20452,-2.356707 h 11.93054 c 1.2177,0 2.20451,-1.055428 2.20452,-2.357153 V 22.13209 c 0,-1.301729 -0.98681,-2.357152 -2.20452,-2.357152 z" /><path
       d="m 592.401,20 c -0.3797,-2e-5 -0.71729,0.241662 -0.83964,0.601103 l -6.39796,18.7978 c -0.10033,0.294891 0.11887,0.601067 0.43037,0.601096 h 2.46889 c 0.37862,5.7e-5 0.71416,-0.243836 0.83096,-0.603992 l 1.20715,-3.724004 c 0.1168,-0.360156 0.45234,-0.604049 0.83096,-0.603992 h 5.99901 c 0.37872,-6.2e-5 0.71438,0.243798 0.83137,0.603992 l 1.20964,3.724004 c 0.11699,0.360191 0.45266,0.60405 0.83137,0.603992 h 2.46848 c 0.31141,-1.18e-4 0.53045,-0.306339 0.42995,-0.601096 l -6.40664,-18.7978 C 596.17241,20.241596 595.83467,19.999927 595.45487,20 Z m 13.68969,0 c -0.3507,0 -0.635,0.284299 -0.635,0.634999 V 39.365 c 0,0.3507 0.2843,0.634999 0.635,0.634999 h 2.23284 c 0.3507,0 0.635,-0.284299 0.635,-0.634999 V 20.634999 c 0,-0.3507 -0.2843,-0.634999 -0.635,-0.634999 z m -12.19852,4.437141 c 0.0939,-0.01032 0.19411,0.06024 0.27326,0.216631 0.88758,1.753663 1.62423,4.778044 2.26591,6.898587 0.10148,0.335383 -0.095,0.605647 -0.44566,0.605647 h -4.11055 c -0.31344,-7.7e-5 -0.53568,-0.305821 -0.43904,-0.603991 l 2.22043,-6.848571 c 0.0541,-0.1668 0.14177,-0.257959 0.23565,-0.268303 z"
       style="font-weight:600;font-size:566.667px;font-family:Inter;-inkscape-font-specification:'Inter Semi-Bold';white-space:pre;display:inline;fill:url(#linearGradient30);fill-opacity:1;stroke-width:0.209535"
       id="path28" /><path
       id="path29"
       style="font-weight:600;font-size:566.667px;font-family:Inter;-inkscape-font-specification:'Inter Semi-Bold';white-space:pre;display:inline;fill:url(#linearGradient29);fill-opacity:1;stroke-width:0.225669"
       d="m 550.86493,20 c -1.21771,1e-6 -2.20504,1.055424 -2.20504,2.357151 v 8.443131 c 0,1.301724 0.98733,2.357151 2.20504,2.357152 h 11.93002 c 1.2177,2e-6 2.20503,1.05498 2.20503,2.356709 V 124.7947 c 0,1.30173 -0.98733,2.35716 -2.20503,2.35716 h -11.93002 c -1.21771,0 -2.20504,1.05499 -2.20504,2.3567 v 8.39653 c 0,1.30172 0.98733,2.35715 2.20504,2.35715 h 27.09395 c 1.2177,0 2.20452,-1.05543 2.20452,-2.35715 V 22.357151 c 0,-1.301731 -0.98681,-2.357155 -2.20452,-2.357151 z" /></g></svg>
