<svg width="180" height="180" viewBox="0 0 180 180" fill="none" xmlns="http://www.w3.org/2000/svg">
<ellipse opacity="0.1" cx="90" cy="174.6" rx="90" ry="5.4" fill="#2B2A7F"/>
<path fill-rule="evenodd" clip-rule="evenodd" d="M97.4727 37.5454C99.2765 35.6465 99.1994 32.6449 97.3005 30.8411L90.2273 24.1222C88.3284 22.3184 85.3267 22.3955 83.5229 24.2944C81.7192 26.1934 81.7963 29.195 83.6952 30.9988L90.7684 37.7176C92.6673 39.5214 95.669 39.4443 97.4727 37.5454ZM94.8211 33.4512C95.2785 33.8857 95.2971 34.6087 94.8626 35.066C94.4281 35.5234 93.7051 35.542 93.2478 35.1075L86.1746 28.3887C85.7172 27.9542 85.6986 27.2312 86.1331 26.7738C86.5675 26.3164 87.2906 26.2978 87.7479 26.7323L94.8211 33.4512ZM41.4003 37.8003C36.4297 37.8003 32.4003 41.8297 32.4003 46.8003V129.6C32.4003 134.187 35.8312 137.972 40.2665 138.529V66.2662C40.2665 61.2957 44.2959 57.2663 49.2665 57.2663H118.267C123.237 57.2663 127.267 61.2957 127.267 66.2662V68.6895H132.859V60.7824C132.859 55.8118 128.83 51.7824 123.859 51.7824H97.2377C93.8175 51.7824 90.5443 50.392 88.1697 47.9306L81.0508 40.5515C79.3546 38.7934 77.0166 37.8003 74.5736 37.8003H41.4003ZM136.459 68.6895V60.7824C136.459 53.8236 130.818 48.1824 123.859 48.1824H97.2377C94.7947 48.1824 92.4567 47.1893 90.7605 45.4311L83.6416 38.052C81.267 35.5906 77.9938 34.2003 74.5736 34.2003H41.4003C34.4415 34.2003 28.8003 39.8415 28.8003 46.8003V129.6C28.8003 136.559 34.4415 142.2 41.4003 142.2H72.0636C72.9866 155.278 83.888 165.6 97.2003 165.6C110.513 165.6 121.414 155.278 122.337 142.2L137.734 142.2C144.692 142.2 150.334 136.559 150.334 129.6V81.2895C150.334 74.3307 144.692 68.6895 137.734 68.6895H136.459ZM122.337 138.6L137.734 138.6C142.704 138.6 146.734 134.571 146.734 129.6V81.2895C146.734 76.3189 142.704 72.2895 137.734 72.2895H57.7799C52.8094 72.2895 48.7799 76.319 48.7799 81.2895V138.6H72.0636C72.9865 125.523 83.888 115.2 97.2003 115.2C110.513 115.2 121.414 125.523 122.337 138.6ZM105.519 34.3628C102.9 34.3963 100.805 36.5465 100.838 39.1654C100.872 41.7842 103.022 43.88 105.641 43.8465L115.396 43.7215C118.015 43.6879 120.11 41.5377 120.077 38.9188C120.043 36.3 117.893 34.2042 115.274 34.2377L105.519 34.3628ZM104.438 39.1193C104.43 38.4885 104.935 37.9705 105.565 37.9625L115.32 37.8374C115.951 37.8294 116.469 38.3342 116.477 38.965C116.485 39.5958 115.98 40.1137 115.35 40.1218L105.595 40.2468C104.964 40.2549 104.446 39.7501 104.438 39.1193ZM75.6003 140.4C75.6003 128.471 85.271 118.8 97.2003 118.8C109.13 118.8 118.8 128.471 118.8 140.4C118.8 152.329 109.13 162 97.2003 162C85.271 162 75.6003 152.329 75.6003 140.4ZM92.7003 128.7C92.7003 126.215 94.715 124.2 97.2003 124.2C99.6856 124.2 101.7 126.215 101.7 128.7V139.5C101.7 141.985 99.6856 144 97.2003 144C94.715 144 92.7003 141.985 92.7003 139.5V128.7ZM97.2003 127.8C96.7033 127.8 96.3003 128.203 96.3003 128.7V139.5C96.3003 139.997 96.7033 140.4 97.2003 140.4C97.6974 140.4 98.1003 139.997 98.1003 139.5V128.7C98.1003 128.203 97.6974 127.8 97.2003 127.8ZM97.2003 156.6C94.715 156.6 92.7003 154.585 92.7003 152.1C92.7003 149.615 94.715 147.6 97.2003 147.6C99.6856 147.6 101.7 149.615 101.7 152.1C101.7 154.585 99.6856 156.6 97.2003 156.6ZM96.3003 152.1C96.3003 152.597 96.7033 153 97.2003 153C97.6974 153 98.1003 152.597 98.1003 152.1C98.1003 151.603 97.6974 151.2 97.2003 151.2C96.7033 151.2 96.3003 151.603 96.3003 152.1Z" fill="#27272A"/>
</svg>
