<svg width="21" height="16" viewBox="0 0 21 16" fill="none" xmlns="http://www.w3.org/2000/svg">
<path d="M12.358 10.115C12.4907 10.0485 12.6023 9.94633 12.6803 9.82002C12.7583 9.69371 12.7996 9.5482 12.7996 9.39976C12.7996 9.25132 12.7583 9.10581 12.6803 8.9795C12.6023 8.85319 12.4907 8.75107 12.358 8.68456L1.15801 3.08456C1.01914 3.01508 0.863052 2.98751 0.708782 3.00522C0.554512 3.02294 0.408731 3.08516 0.289224 3.18431C0.169716 3.28347 0.0816479 3.41526 0.0357628 3.5636C-0.0101233 3.71195 -0.0118427 3.87045 0.0308142 4.01976L1.17401 8.01976C1.22183 8.18694 1.32282 8.33399 1.46168 8.43864C1.60055 8.5433 1.76973 8.59986 1.94361 8.59976H5.60041C5.81259 8.59976 6.01607 8.68405 6.1661 8.83408C6.31613 8.98411 6.40041 9.18759 6.40041 9.39976C6.40041 9.61193 6.31613 9.81542 6.1661 9.96545C6.01607 10.1155 5.81259 10.1998 5.60041 10.1998H1.94361C1.76973 10.1997 1.60055 10.2562 1.46168 10.3609C1.32282 10.4655 1.22183 10.6126 1.17401 10.7798L0.0316133 14.7798C-0.0111275 14.929 -0.00951099 15.0875 0.0362663 15.2359C0.0820427 15.3842 0.170003 15.5161 0.289417 15.6153C0.408832 15.7145 0.55454 15.7768 0.708773 15.7947C0.863007 15.8125 1.0191 15.7851 1.15801 15.7158L12.358 10.1158V10.115Z" fill="#8E8EA0"/>
</svg>
