<svg width="21" height="20" viewBox="0 0 21 20" fill="none" xmlns="http://www.w3.org/2000/svg">
<g clip-path="url(#clip0_1449_200)">
<path d="M13.8335 13.3334L10.5002 10M10.5002 10L7.16688 13.3334M10.5002 10V17.5M17.4919 15.325C18.3047 14.8819 18.9467 14.1808 19.3168 13.3322C19.6868 12.4837 19.7637 11.5361 19.5354 10.6389C19.307 9.74182 18.7865 8.94629 18.0558 8.3779C17.3251 7.80951 16.4259 7.50064 15.5002 7.50003H14.4502C14.198 6.5244 13.7278 5.61864 13.0752 4.85085C12.4225 4.08307 11.6042 3.47324 10.682 3.0672C9.75967 2.66116 8.75734 2.46949 7.75031 2.5066C6.74328 2.5437 5.75777 2.80861 4.86786 3.28142C3.97795 3.75422 3.2068 4.42261 2.6124 5.23635C2.01799 6.05008 1.61579 6.98797 1.43603 7.97952C1.25627 8.97107 1.30363 9.99047 1.57456 10.9611C1.84548 11.9317 2.33291 12.8282 3.00021 13.5834" stroke="white" stroke-width="1.67" stroke-linecap="round" stroke-linejoin="round"/>
</g>
<defs>
<clipPath id="clip0_1449_200">
<rect width="20" height="20" fill="white" transform="translate(0.5)"/>
</clipPath>
</defs>
</svg>
